{
	"patcher" : 	{
		"fileversion" : 1,
		"appversion" : 		{
			"major" : 7,
			"minor" : 2,
			"revision" : 4,
			"architecture" : "x86",
			"modernui" : 1
		}
,
		"rect" : [ 178.0, 324.0, 825.0, 480.0 ],
		"bglocked" : 0,
		"openinpresentation" : 0,
		"default_fontsize" : 12.0,
		"default_fontface" : 0,
		"default_fontname" : "Arial",
		"gridonopen" : 1,
		"gridsize" : [ 15.0, 15.0 ],
		"gridsnaponopen" : 1,
		"objectsnaponopen" : 1,
		"statusbarvisible" : 2,
		"toolbarvisible" : 1,
		"lefttoolbarpinned" : 0,
		"toptoolbarpinned" : 0,
		"righttoolbarpinned" : 0,
		"bottomtoolbarpinned" : 0,
		"toolbars_unpinned_last_save" : 0,
		"tallnewobj" : 0,
		"boxanimatetime" : 200,
		"enablehscroll" : 1,
		"enablevscroll" : 1,
		"devicewidth" : 0.0,
		"description" : "",
		"digest" : "",
		"tags" : "",
		"style" : "",
		"subpatcher_template" : "",
		"boxes" : [ 			{
				"box" : 				{
					"id" : "obj-12",
					"maxclass" : "slider",
					"numinlets" : 1,
					"numoutlets" : 1,
					"outlettype" : [ "" ],
					"parameter_enable" : 0,
					"patching_rect" : [ 423.0, 314.0, 31.0, 126.0 ],
					"size" : 701.0,
					"style" : ""
				}

			}
, 			{
				"box" : 				{
					"fontname" : "Palatino Linotype",
					"fontsize" : 12.0,
					"id" : "obj-9",
					"maxclass" : "message",
					"numinlets" : 2,
					"numoutlets" : 1,
					"outlettype" : [ "" ],
					"patching_rect" : [ 481.0, 260.0, 48.0, 20.0 ],
					"style" : "",
					"text" : "$1 100"
				}

			}
, 			{
				"box" : 				{
					"fontname" : "Palatino Linotype",
					"fontsize" : 12.0,
					"id" : "obj-8",
					"maxclass" : "newobj",
					"numinlets" : 3,
					"numoutlets" : 2,
					"outlettype" : [ "", "" ],
					"patching_rect" : [ 481.0, 283.0, 46.0, 20.0 ],
					"style" : "",
					"text" : "line"
				}

			}
, 			{
				"box" : 				{
					"id" : "obj-11",
					"maxclass" : "slider",
					"numinlets" : 1,
					"numoutlets" : 1,
					"outlettype" : [ "" ],
					"parameter_enable" : 0,
					"patching_rect" : [ 481.0, 314.0, 31.0, 126.0 ],
					"size" : 701.0,
					"style" : ""
				}

			}
, 			{
				"box" : 				{
					"format" : 6,
					"id" : "obj-10",
					"maxclass" : "flonum",
					"numinlets" : 1,
					"numoutlets" : 2,
					"outlettype" : [ "", "bang" ],
					"parameter_enable" : 0,
					"patching_rect" : [ 481.0, 215.0, 50.0, 22.0 ],
					"style" : ""
				}

			}
, 			{
				"box" : 				{
					"id" : "obj-4",
					"maxclass" : "button",
					"numinlets" : 1,
					"numoutlets" : 1,
					"outlettype" : [ "bang" ],
					"patching_rect" : [ 619.0, 215.0, 24.0, 24.0 ],
					"style" : ""
				}

			}
, 			{
				"box" : 				{
					"id" : "obj-2",
					"maxclass" : "button",
					"numinlets" : 1,
					"numoutlets" : 1,
					"outlettype" : [ "bang" ],
					"patching_rect" : [ 668.0, 215.0, 24.0, 24.0 ],
					"style" : ""
				}

			}
, 			{
				"box" : 				{
					"fontname" : "Arial",
					"fontsize" : 12.0,
					"id" : "obj-18",
					"maxclass" : "newobj",
					"numinlets" : 0,
					"numoutlets" : 1,
					"outlettype" : [ "" ],
					"patching_rect" : [ 481.0, 139.0, 36.0, 22.0 ],
					"style" : "",
					"text" : "r a0"
				}

			}
, 			{
				"box" : 				{
					"fontname" : "Arial",
					"fontsize" : 12.0,
					"id" : "obj-29",
					"maxclass" : "newobj",
					"numinlets" : 0,
					"numoutlets" : 1,
					"outlettype" : [ "" ],
					"patching_rect" : [ 668.0, 139.0, 36.0, 22.0 ],
					"style" : "",
					"text" : "r d3"
				}

			}
, 			{
				"box" : 				{
					"fontname" : "Arial",
					"fontsize" : 12.0,
					"id" : "obj-30",
					"maxclass" : "newobj",
					"numinlets" : 0,
					"numoutlets" : 1,
					"outlettype" : [ "" ],
					"patching_rect" : [ 619.0, 139.0, 36.0, 22.0 ],
					"style" : "",
					"text" : "r d2"
				}

			}
, 			{
				"box" : 				{
					"fontname" : "Arial",
					"fontsize" : 12.0,
					"id" : "obj-5",
					"maxclass" : "newobj",
					"numinlets" : 0,
					"numoutlets" : 1,
					"outlettype" : [ "" ],
					"patching_rect" : [ 159.0, 70.0, 60.0, 22.0 ],
					"style" : "",
					"text" : "r portinfo"
				}

			}
, 			{
				"box" : 				{
					"allowdrag" : 0,
					"bgcolor" : [ 0.32549, 0.345098, 0.372549, 1.0 ],
					"bgfillcolor_angle" : 270.0,
					"bgfillcolor_autogradient" : 0,
					"bgfillcolor_color" : [ 0.32549, 0.345098, 0.372549, 1.0 ],
					"bgfillcolor_color1" : [ 0.376471, 0.384314, 0.4, 1.0 ],
					"bgfillcolor_color2" : [ 0.290196, 0.309804, 0.301961, 1.0 ],
					"bgfillcolor_proportion" : 0.39,
					"bgfillcolor_type" : "color",
					"color" : [ 0.345098, 0.513725, 0.572549, 1.0 ],
					"fontsize" : 12.0,
					"id" : "obj-6",
					"items" : [ "Bluetooth-Incoming-Port", ",", "Bluetooth-Modem", ",", "GWYDBOX-SPPDev", ",", "usbmodemfd121", ",", "Bluetooth-Modem", ",", 5, ",", 6, ",", 7 ],
					"labelclick" : 1,
					"maxclass" : "umenu",
					"numinlets" : 1,
					"numoutlets" : 3,
					"outlettype" : [ "int", "", "" ],
					"parameter_enable" : 0,
					"patching_rect" : [ 159.0, 105.0, 149.0, 22.0 ],
					"style" : "",
					"textcolor" : [ 1.0, 1.0, 1.0, 1.0 ]
				}

			}
, 			{
				"box" : 				{
					"id" : "obj-50",
					"maxclass" : "toggle",
					"numinlets" : 1,
					"numoutlets" : 1,
					"outlettype" : [ "int" ],
					"parameter_enable" : 0,
					"patching_rect" : [ 34.0, 70.0, 50.0, 50.0 ],
					"style" : ""
				}

			}
, 			{
				"box" : 				{
					"fontname" : "Arial",
					"fontsize" : 12.0,
					"id" : "obj-53",
					"maxclass" : "newobj",
					"numinlets" : 2,
					"numoutlets" : 0,
					"patcher" : 					{
						"fileversion" : 1,
						"appversion" : 						{
							"major" : 7,
							"minor" : 2,
							"revision" : 4,
							"architecture" : "x86",
							"modernui" : 1
						}
,
						"rect" : [ 789.0, 155.0, 1370.0, 856.0 ],
						"bglocked" : 0,
						"openinpresentation" : 0,
						"default_fontsize" : 12.0,
						"default_fontface" : 0,
						"default_fontname" : "Arial",
						"gridonopen" : 1,
						"gridsize" : [ 15.0, 15.0 ],
						"gridsnaponopen" : 1,
						"objectsnaponopen" : 1,
						"statusbarvisible" : 2,
						"toolbarvisible" : 1,
						"lefttoolbarpinned" : 0,
						"toptoolbarpinned" : 0,
						"righttoolbarpinned" : 0,
						"bottomtoolbarpinned" : 0,
						"toolbars_unpinned_last_save" : 0,
						"tallnewobj" : 0,
						"boxanimatetime" : 200,
						"enablehscroll" : 1,
						"enablevscroll" : 1,
						"devicewidth" : 0.0,
						"description" : "",
						"digest" : "",
						"tags" : "",
						"style" : "",
						"subpatcher_template" : "",
						"boxes" : [ 							{
								"box" : 								{
									"id" : "obj-89",
									"linecount" : 3,
									"maxclass" : "comment",
									"numinlets" : 1,
									"numoutlets" : 0,
									"patching_rect" : [ 777.0, 64.0, 150.0, 47.0 ],
									"style" : "",
									"text" : "From Arduino2Max\nhttp://playground.arduino.cc/Interfacing/MaxMSP"
								}

							}
, 							{
								"box" : 								{
									"id" : "obj-87",
									"maxclass" : "newobj",
									"numinlets" : 1,
									"numoutlets" : 1,
									"outlettype" : [ "" ],
									"patching_rect" : [ 229.0, 49.0, 85.0, 22.0 ],
									"style" : "",
									"text" : "loadmess 50"
								}

							}
, 							{
								"box" : 								{
									"color" : [ 0.8, 0.611765, 0.380392, 1.0 ],
									"fontname" : "Arial",
									"fontsize" : 9.0,
									"id" : "obj-2",
									"maxclass" : "newobj",
									"numinlets" : 1,
									"numoutlets" : 0,
									"patching_rect" : [ 1182.0, 189.0, 64.0, 19.0 ],
									"style" : "",
									"text" : "s portselect"
								}

							}
, 							{
								"box" : 								{
									"color" : [ 0.8, 0.611765, 0.380392, 1.0 ],
									"fontname" : "Arial",
									"fontsize" : 9.0,
									"id" : "obj-3",
									"maxclass" : "newobj",
									"numinlets" : 0,
									"numoutlets" : 1,
									"outlettype" : [ "" ],
									"patching_rect" : [ 35.0, 276.0, 64.0, 19.0 ],
									"style" : "",
									"text" : "r portselect"
								}

							}
, 							{
								"box" : 								{
									"fontname" : "Arial",
									"fontsize" : 9.0,
									"id" : "obj-4",
									"maxclass" : "newobj",
									"numinlets" : 1,
									"numoutlets" : 0,
									"patching_rect" : [ 229.0, 447.0, 54.0, 19.0 ],
									"style" : "",
									"text" : "s portinfo"
								}

							}
, 							{
								"box" : 								{
									"color" : [ 0.8, 0.611765, 0.380392, 1.0 ],
									"fontname" : "Arial",
									"fontsize" : 9.0,
									"id" : "obj-5",
									"maxclass" : "newobj",
									"numinlets" : 1,
									"numoutlets" : 1,
									"outlettype" : [ "" ],
									"patcher" : 									{
										"fileversion" : 1,
										"appversion" : 										{
											"major" : 7,
											"minor" : 2,
											"revision" : 4,
											"architecture" : "x86",
											"modernui" : 1
										}
,
										"rect" : [ 13.0, 88.0, 471.0, 388.0 ],
										"bglocked" : 0,
										"openinpresentation" : 0,
										"default_fontsize" : 12.0,
										"default_fontface" : 0,
										"default_fontname" : "Arial",
										"gridonopen" : 1,
										"gridsize" : [ 15.0, 15.0 ],
										"gridsnaponopen" : 1,
										"objectsnaponopen" : 1,
										"statusbarvisible" : 2,
										"toolbarvisible" : 1,
										"lefttoolbarpinned" : 0,
										"toptoolbarpinned" : 0,
										"righttoolbarpinned" : 0,
										"bottomtoolbarpinned" : 0,
										"toolbars_unpinned_last_save" : 0,
										"tallnewobj" : 0,
										"boxanimatetime" : 200,
										"enablehscroll" : 1,
										"enablevscroll" : 1,
										"devicewidth" : 0.0,
										"description" : "",
										"digest" : "",
										"tags" : "",
										"style" : "",
										"subpatcher_template" : "",
										"boxes" : [ 											{
												"box" : 												{
													"comment" : "",
													"id" : "obj-1",
													"maxclass" : "outlet",
													"numinlets" : 1,
													"numoutlets" : 0,
													"patching_rect" : [ 24.0, 246.0, 20.0, 20.0 ],
													"style" : ""
												}

											}
, 											{
												"box" : 												{
													"comment" : "",
													"id" : "obj-2",
													"maxclass" : "inlet",
													"numinlets" : 0,
													"numoutlets" : 1,
													"outlettype" : [ "" ],
													"patching_rect" : [ 24.0, 32.0, 20.0, 20.0 ],
													"style" : ""
												}

											}
, 											{
												"box" : 												{
													"color" : [ 0.8, 0.611765, 0.380392, 1.0 ],
													"fontname" : "Arial",
													"fontsize" : 12.0,
													"id" : "obj-3",
													"maxclass" : "newobj",
													"numinlets" : 1,
													"numoutlets" : 1,
													"outlettype" : [ "" ],
													"patching_rect" : [ 304.0, 196.0, 127.0, 20.0 ],
													"style" : "",
													"text" : "prepend setitem 7"
												}

											}
, 											{
												"box" : 												{
													"color" : [ 0.8, 0.611765, 0.380392, 1.0 ],
													"fontname" : "Arial",
													"fontsize" : 12.0,
													"id" : "obj-4",
													"maxclass" : "newobj",
													"numinlets" : 1,
													"numoutlets" : 1,
													"outlettype" : [ "" ],
													"patching_rect" : [ 264.0, 170.0, 127.0, 20.0 ],
													"style" : "",
													"text" : "prepend setitem 6"
												}

											}
, 											{
												"box" : 												{
													"color" : [ 0.8, 0.611765, 0.380392, 1.0 ],
													"fontname" : "Arial",
													"fontsize" : 12.0,
													"id" : "obj-5",
													"maxclass" : "newobj",
													"numinlets" : 1,
													"numoutlets" : 1,
													"outlettype" : [ "" ],
													"patching_rect" : [ 224.0, 145.0, 127.0, 20.0 ],
													"style" : "",
													"text" : "prepend setitem 5"
												}

											}
, 											{
												"box" : 												{
													"color" : [ 0.8, 0.611765, 0.380392, 1.0 ],
													"fontname" : "Arial",
													"fontsize" : 12.0,
													"id" : "obj-6",
													"maxclass" : "newobj",
													"numinlets" : 1,
													"numoutlets" : 1,
													"outlettype" : [ "" ],
													"patching_rect" : [ 184.0, 119.0, 127.0, 20.0 ],
													"style" : "",
													"text" : "prepend setitem 4"
												}

											}
, 											{
												"box" : 												{
													"color" : [ 0.8, 0.611765, 0.380392, 1.0 ],
													"fontname" : "Arial",
													"fontsize" : 12.0,
													"id" : "obj-7",
													"maxclass" : "newobj",
													"numinlets" : 1,
													"numoutlets" : 1,
													"outlettype" : [ "" ],
													"patching_rect" : [ 143.0, 197.0, 127.0, 20.0 ],
													"style" : "",
													"text" : "prepend setitem 3"
												}

											}
, 											{
												"box" : 												{
													"color" : [ 0.8, 0.611765, 0.380392, 1.0 ],
													"fontname" : "Arial",
													"fontsize" : 12.0,
													"id" : "obj-8",
													"maxclass" : "newobj",
													"numinlets" : 1,
													"numoutlets" : 1,
													"outlettype" : [ "" ],
													"patching_rect" : [ 104.0, 171.0, 127.0, 20.0 ],
													"style" : "",
													"text" : "prepend setitem 2"
												}

											}
, 											{
												"box" : 												{
													"color" : [ 0.8, 0.611765, 0.380392, 1.0 ],
													"fontname" : "Arial",
													"fontsize" : 12.0,
													"id" : "obj-9",
													"maxclass" : "newobj",
													"numinlets" : 1,
													"numoutlets" : 1,
													"outlettype" : [ "" ],
													"patching_rect" : [ 64.0, 146.0, 127.0, 20.0 ],
													"style" : "",
													"text" : "prepend setitem 1"
												}

											}
, 											{
												"box" : 												{
													"color" : [ 0.8, 0.611765, 0.380392, 1.0 ],
													"fontname" : "Arial",
													"fontsize" : 12.0,
													"id" : "obj-10",
													"maxclass" : "newobj",
													"numinlets" : 1,
													"numoutlets" : 1,
													"outlettype" : [ "" ],
													"patching_rect" : [ 24.0, 120.0, 127.0, 20.0 ],
													"style" : "",
													"text" : "prepend setitem 0"
												}

											}
, 											{
												"box" : 												{
													"color" : [ 0.8, 0.611765, 0.380392, 1.0 ],
													"fontname" : "Arial",
													"fontsize" : 12.0,
													"id" : "obj-11",
													"maxclass" : "newobj",
													"numinlets" : 1,
													"numoutlets" : 8,
													"outlettype" : [ "", "", "", "", "", "", "", "" ],
													"patching_rect" : [ 24.0, 89.0, 293.0, 20.0 ],
													"style" : "",
													"text" : "unpack s s s s s s s s"
												}

											}
, 											{
												"box" : 												{
													"color" : [ 0.8, 0.611765, 0.380392, 1.0 ],
													"fontname" : "Arial",
													"fontsize" : 12.0,
													"id" : "obj-12",
													"maxclass" : "newobj",
													"numinlets" : 2,
													"numoutlets" : 2,
													"outlettype" : [ "", "" ],
													"patching_rect" : [ 24.0, 59.0, 93.0, 20.0 ],
													"style" : "",
													"text" : "route port"
												}

											}
, 											{
												"box" : 												{
													"fontname" : "Arial",
													"fontsize" : 12.0,
													"id" : "obj-13",
													"linecount" : 4,
													"maxclass" : "comment",
													"numinlets" : 1,
													"numoutlets" : 0,
													"patching_rect" : [ 167.0, 235.0, 258.0, 62.0 ],
													"style" : "",
													"text" : "Manages serial name data. Each port name (up to 8, in this case) replaces an item in the drop-down menu of the parent patch (items in drop-down are numbered 0 - 7).",
													"textcolor" : [ 0.8, 0.611765, 0.380392, 1.0 ]
												}

											}
 ],
										"lines" : [ 											{
												"patchline" : 												{
													"color" : [ 0.8, 0.611765, 0.380392, 1.0 ],
													"destination" : [ "obj-1", 0 ],
													"disabled" : 0,
													"hidden" : 0,
													"source" : [ "obj-10", 0 ]
												}

											}
, 											{
												"patchline" : 												{
													"color" : [ 0.8, 0.611765, 0.380392, 1.0 ],
													"destination" : [ "obj-10", 0 ],
													"disabled" : 0,
													"hidden" : 0,
													"source" : [ "obj-11", 0 ]
												}

											}
, 											{
												"patchline" : 												{
													"color" : [ 0.8, 0.611765, 0.380392, 1.0 ],
													"destination" : [ "obj-3", 0 ],
													"disabled" : 0,
													"hidden" : 0,
													"source" : [ "obj-11", 7 ]
												}

											}
, 											{
												"patchline" : 												{
													"color" : [ 0.8, 0.611765, 0.380392, 1.0 ],
													"destination" : [ "obj-4", 0 ],
													"disabled" : 0,
													"hidden" : 0,
													"source" : [ "obj-11", 6 ]
												}

											}
, 											{
												"patchline" : 												{
													"color" : [ 0.8, 0.611765, 0.380392, 1.0 ],
													"destination" : [ "obj-5", 0 ],
													"disabled" : 0,
													"hidden" : 0,
													"source" : [ "obj-11", 5 ]
												}

											}
, 											{
												"patchline" : 												{
													"color" : [ 0.8, 0.611765, 0.380392, 1.0 ],
													"destination" : [ "obj-6", 0 ],
													"disabled" : 0,
													"hidden" : 0,
													"source" : [ "obj-11", 4 ]
												}

											}
, 											{
												"patchline" : 												{
													"color" : [ 0.8, 0.611765, 0.380392, 1.0 ],
													"destination" : [ "obj-7", 0 ],
													"disabled" : 0,
													"hidden" : 0,
													"source" : [ "obj-11", 3 ]
												}

											}
, 											{
												"patchline" : 												{
													"color" : [ 0.8, 0.611765, 0.380392, 1.0 ],
													"destination" : [ "obj-8", 0 ],
													"disabled" : 0,
													"hidden" : 0,
													"source" : [ "obj-11", 2 ]
												}

											}
, 											{
												"patchline" : 												{
													"color" : [ 0.8, 0.611765, 0.380392, 1.0 ],
													"destination" : [ "obj-9", 0 ],
													"disabled" : 0,
													"hidden" : 0,
													"source" : [ "obj-11", 1 ]
												}

											}
, 											{
												"patchline" : 												{
													"color" : [ 0.8, 0.611765, 0.380392, 1.0 ],
													"destination" : [ "obj-11", 0 ],
													"disabled" : 0,
													"hidden" : 0,
													"source" : [ "obj-12", 0 ]
												}

											}
, 											{
												"patchline" : 												{
													"color" : [ 0.8, 0.611765, 0.380392, 1.0 ],
													"destination" : [ "obj-12", 0 ],
													"disabled" : 0,
													"hidden" : 0,
													"source" : [ "obj-2", 0 ]
												}

											}
, 											{
												"patchline" : 												{
													"color" : [ 0.8, 0.611765, 0.380392, 1.0 ],
													"destination" : [ "obj-1", 0 ],
													"disabled" : 0,
													"hidden" : 0,
													"source" : [ "obj-3", 0 ]
												}

											}
, 											{
												"patchline" : 												{
													"color" : [ 0.8, 0.611765, 0.380392, 1.0 ],
													"destination" : [ "obj-1", 0 ],
													"disabled" : 0,
													"hidden" : 0,
													"source" : [ "obj-4", 0 ]
												}

											}
, 											{
												"patchline" : 												{
													"color" : [ 0.8, 0.611765, 0.380392, 1.0 ],
													"destination" : [ "obj-1", 0 ],
													"disabled" : 0,
													"hidden" : 0,
													"source" : [ "obj-5", 0 ]
												}

											}
, 											{
												"patchline" : 												{
													"color" : [ 0.8, 0.611765, 0.380392, 1.0 ],
													"destination" : [ "obj-1", 0 ],
													"disabled" : 0,
													"hidden" : 0,
													"source" : [ "obj-6", 0 ]
												}

											}
, 											{
												"patchline" : 												{
													"color" : [ 0.8, 0.611765, 0.380392, 1.0 ],
													"destination" : [ "obj-1", 0 ],
													"disabled" : 0,
													"hidden" : 0,
													"source" : [ "obj-7", 0 ]
												}

											}
, 											{
												"patchline" : 												{
													"color" : [ 0.8, 0.611765, 0.380392, 1.0 ],
													"destination" : [ "obj-1", 0 ],
													"disabled" : 0,
													"hidden" : 0,
													"source" : [ "obj-8", 0 ]
												}

											}
, 											{
												"patchline" : 												{
													"color" : [ 0.8, 0.611765, 0.380392, 1.0 ],
													"destination" : [ "obj-1", 0 ],
													"disabled" : 0,
													"hidden" : 0,
													"source" : [ "obj-9", 0 ]
												}

											}
 ]
									}
,
									"patching_rect" : [ 229.0, 412.0, 50.0, 19.0 ],
									"saved_object_attributes" : 									{
										"description" : "",
										"digest" : "",
										"globalpatchername" : "",
										"style" : "",
										"tags" : ""
									}
,
									"style" : "",
									"text" : "p sorter"
								}

							}
, 							{
								"box" : 								{
									"color" : [ 0.8, 0.611765, 0.380392, 1.0 ],
									"fontname" : "Arial",
									"fontsize" : 9.0,
									"id" : "obj-6",
									"maxclass" : "newobj",
									"numinlets" : 1,
									"numoutlets" : 1,
									"outlettype" : [ "" ],
									"patching_rect" : [ 35.0, 307.0, 91.0, 19.0 ],
									"style" : "",
									"text" : "prepend port"
								}

							}
, 							{
								"box" : 								{
									"id" : "obj-7",
									"maxclass" : "button",
									"numinlets" : 1,
									"numoutlets" : 1,
									"outlettype" : [ "bang" ],
									"patching_rect" : [ 350.0, 244.0, 27.0, 27.0 ],
									"style" : ""
								}

							}
, 							{
								"box" : 								{
									"fontname" : "Arial",
									"fontsize" : 9.0,
									"id" : "obj-8",
									"maxclass" : "comment",
									"numinlets" : 1,
									"numoutlets" : 0,
									"patching_rect" : [ 394.0, 162.0, 284.0, 17.0 ],
									"style" : "",
									"text" : "Set the sample rate: between every 15ms and every 100ms."
								}

							}
, 							{
								"box" : 								{
									"bgcolor" : [ 0.866667, 0.866667, 0.866667, 1.0 ],
									"fontname" : "Arial",
									"fontsize" : 9.0,
									"htricolor" : [ 0.87, 0.82, 0.24, 1.0 ],
									"id" : "obj-9",
									"maxclass" : "number",
									"numinlets" : 1,
									"numoutlets" : 2,
									"outlettype" : [ "", "bang" ],
									"parameter_enable" : 0,
									"patching_rect" : [ 350.0, 177.0, 35.0, 19.0 ],
									"style" : "",
									"textcolor" : [ 0.0, 0.0, 0.0, 1.0 ],
									"tricolor" : [ 0.75, 0.75, 0.75, 1.0 ],
									"triscale" : 0.9
								}

							}
, 							{
								"box" : 								{
									"id" : "obj-10",
									"maxclass" : "slider",
									"min" : 15.0,
									"numinlets" : 1,
									"numoutlets" : 1,
									"orientation" : 1,
									"outlettype" : [ "" ],
									"parameter_enable" : 0,
									"patching_rect" : [ 350.0, 120.0, 169.0, 38.0 ],
									"size" : 86.0,
									"style" : ""
								}

							}
, 							{
								"box" : 								{
									"fontname" : "Arial",
									"fontsize" : 9.0,
									"id" : "obj-11",
									"maxclass" : "newobj",
									"numinlets" : 1,
									"numoutlets" : 1,
									"outlettype" : [ "bang" ],
									"patching_rect" : [ 275.0, 244.0, 48.0, 19.0 ],
									"style" : "",
									"text" : "loadbang"
								}

							}
, 							{
								"box" : 								{
									"fontname" : "Arial",
									"fontsize" : 9.0,
									"id" : "obj-12",
									"maxclass" : "newobj",
									"numinlets" : 2,
									"numoutlets" : 1,
									"outlettype" : [ "bang" ],
									"patching_rect" : [ 208.0, 267.0, 43.0, 19.0 ],
									"style" : "",
									"text" : "delay 4"
								}

							}
, 							{
								"box" : 								{
									"fontname" : "Arial",
									"fontsize" : 18.0,
									"id" : "obj-31",
									"maxclass" : "comment",
									"numinlets" : 1,
									"numoutlets" : 0,
									"patching_rect" : [ 395.0, 86.0, 237.0, 27.0 ],
									"style" : "",
									"text" : "Serial Port Settings"
								}

							}
, 							{
								"box" : 								{
									"fontname" : "Arial",
									"fontsize" : 9.0,
									"id" : "obj-35",
									"maxclass" : "newobj",
									"numinlets" : 0,
									"numoutlets" : 1,
									"outlettype" : [ "" ],
									"patching_rect" : [ 61.0, 137.0, 41.0, 19.0 ],
									"style" : "",
									"text" : "r onoff"
								}

							}
, 							{
								"box" : 								{
									"comment" : "inlet for patcher control",
									"id" : "obj-36",
									"maxclass" : "inlet",
									"numinlets" : 0,
									"numoutlets" : 1,
									"outlettype" : [ "int" ],
									"patching_rect" : [ 1182.0, 130.0, 15.0, 15.0 ],
									"style" : ""
								}

							}
, 							{
								"box" : 								{
									"comment" : "1 or 0 to start/stop serial reads",
									"id" : "obj-38",
									"maxclass" : "inlet",
									"numinlets" : 0,
									"numoutlets" : 1,
									"outlettype" : [ "int" ],
									"patching_rect" : [ 129.0, 120.0, 15.0, 15.0 ],
									"style" : ""
								}

							}
, 							{
								"box" : 								{
									"fontname" : "Arial",
									"fontsize" : 9.0,
									"id" : "obj-39",
									"maxclass" : "comment",
									"numinlets" : 1,
									"numoutlets" : 0,
									"patching_rect" : [ 397.0, 251.0, 243.0, 17.0 ],
									"style" : "",
									"text" : "Print a list of serial ports to the max window"
								}

							}
, 							{
								"box" : 								{
									"id" : "obj-40",
									"maxclass" : "button",
									"numinlets" : 1,
									"numoutlets" : 1,
									"outlettype" : [ "bang" ],
									"patching_rect" : [ 208.0, 299.0, 15.0, 15.0 ],
									"style" : ""
								}

							}
, 							{
								"box" : 								{
									"fontname" : "Arial",
									"fontsize" : 9.0,
									"id" : "obj-41",
									"maxclass" : "newobj",
									"numinlets" : 1,
									"numoutlets" : 1,
									"outlettype" : [ "" ],
									"patcher" : 									{
										"fileversion" : 1,
										"appversion" : 										{
											"major" : 7,
											"minor" : 2,
											"revision" : 4,
											"architecture" : "x86",
											"modernui" : 1
										}
,
										"rect" : [ 289.0, 44.0, 838.0, 659.0 ],
										"bglocked" : 0,
										"openinpresentation" : 0,
										"default_fontsize" : 12.0,
										"default_fontface" : 0,
										"default_fontname" : "Arial",
										"gridonopen" : 1,
										"gridsize" : [ 15.0, 15.0 ],
										"gridsnaponopen" : 1,
										"objectsnaponopen" : 1,
										"statusbarvisible" : 2,
										"toolbarvisible" : 1,
										"lefttoolbarpinned" : 0,
										"toptoolbarpinned" : 0,
										"righttoolbarpinned" : 0,
										"bottomtoolbarpinned" : 0,
										"toolbars_unpinned_last_save" : 0,
										"tallnewobj" : 0,
										"boxanimatetime" : 200,
										"enablehscroll" : 1,
										"enablevscroll" : 1,
										"devicewidth" : 0.0,
										"description" : "",
										"digest" : "",
										"tags" : "",
										"style" : "",
										"subpatcher_template" : "",
										"boxes" : [ 											{
												"box" : 												{
													"comment" : "",
													"id" : "obj-1",
													"maxclass" : "outlet",
													"numinlets" : 1,
													"numoutlets" : 0,
													"patching_rect" : [ 99.0, 316.0, 15.0, 15.0 ],
													"style" : ""
												}

											}
, 											{
												"box" : 												{
													"fontname" : "Arial",
													"fontsize" : 9.0,
													"id" : "obj-2",
													"maxclass" : "newobj",
													"numinlets" : 1,
													"numoutlets" : 1,
													"outlettype" : [ "int" ],
													"patching_rect" : [ 107.0, 210.0, 31.0, 17.0 ],
													"style" : "",
													"text" : "spell"
												}

											}
, 											{
												"box" : 												{
													"fontname" : "Arial",
													"fontsize" : 9.0,
													"id" : "obj-3",
													"maxclass" : "message",
													"numinlets" : 2,
													"numoutlets" : 1,
													"outlettype" : [ "" ],
													"patching_rect" : [ 90.0, 241.0, 20.0, 15.0 ],
													"style" : "",
													"text" : "13"
												}

											}
, 											{
												"box" : 												{
													"fontname" : "Arial",
													"fontsize" : 9.0,
													"id" : "obj-4",
													"maxclass" : "newobj",
													"numinlets" : 1,
													"numoutlets" : 2,
													"outlettype" : [ "bang", "" ],
													"patching_rect" : [ 90.0, 127.0, 27.0, 17.0 ],
													"style" : "",
													"text" : "t b l"
												}

											}
, 											{
												"box" : 												{
													"comment" : "",
													"id" : "obj-5",
													"maxclass" : "inlet",
													"numinlets" : 0,
													"numoutlets" : 1,
													"outlettype" : [ "" ],
													"patching_rect" : [ 90.0, 70.0, 15.0, 15.0 ],
													"style" : ""
												}

											}
 ],
										"lines" : [ 											{
												"patchline" : 												{
													"destination" : [ "obj-1", 0 ],
													"disabled" : 0,
													"hidden" : 0,
													"midpoints" : [ 116.5, 286.0, 108.0, 286.0 ],
													"source" : [ "obj-2", 0 ]
												}

											}
, 											{
												"patchline" : 												{
													"destination" : [ "obj-1", 0 ],
													"disabled" : 0,
													"hidden" : 0,
													"midpoints" : [ 99.5, 286.0, 108.0, 286.0 ],
													"source" : [ "obj-3", 0 ]
												}

											}
, 											{
												"patchline" : 												{
													"destination" : [ "obj-2", 0 ],
													"disabled" : 0,
													"hidden" : 0,
													"source" : [ "obj-4", 1 ]
												}

											}
, 											{
												"patchline" : 												{
													"destination" : [ "obj-3", 0 ],
													"disabled" : 0,
													"hidden" : 0,
													"midpoints" : [ 99.5, 235.0, 98.0, 235.0 ],
													"source" : [ "obj-4", 0 ]
												}

											}
, 											{
												"patchline" : 												{
													"destination" : [ "obj-4", 0 ],
													"disabled" : 0,
													"hidden" : 0,
													"source" : [ "obj-5", 0 ]
												}

											}
 ]
									}
,
									"patching_rect" : [ 129.0, 290.0, 53.0, 19.0 ],
									"saved_object_attributes" : 									{
										"description" : "",
										"digest" : "",
										"globalpatchername" : "",
										"style" : "",
										"tags" : ""
									}
,
									"style" : "",
									"text" : "p convert"
								}

							}
, 							{
								"box" : 								{
									"color" : [ 1.0, 0.360784, 0.682353, 1.0 ],
									"fontname" : "Arial",
									"fontsize" : 9.0,
									"id" : "obj-42",
									"maxclass" : "newobj",
									"numinlets" : 1,
									"numoutlets" : 0,
									"patching_rect" : [ 1169.0, 697.0, 35.0, 19.0 ],
									"style" : "",
									"text" : "s d12"
								}

							}
, 							{
								"box" : 								{
									"color" : [ 1.0, 0.360784, 0.682353, 1.0 ],
									"fontname" : "Arial",
									"fontsize" : 9.0,
									"id" : "obj-43",
									"maxclass" : "newobj",
									"numinlets" : 1,
									"numoutlets" : 0,
									"patching_rect" : [ 1234.0, 697.0, 35.0, 19.0 ],
									"style" : "",
									"text" : "s d13"
								}

							}
, 							{
								"box" : 								{
									"color" : [ 1.0, 0.360784, 0.682353, 1.0 ],
									"fontname" : "Arial",
									"fontsize" : 9.0,
									"id" : "obj-44",
									"maxclass" : "newobj",
									"numinlets" : 1,
									"numoutlets" : 0,
									"patching_rect" : [ 1104.0, 697.0, 35.0, 19.0 ],
									"style" : "",
									"text" : "s d11"
								}

							}
, 							{
								"box" : 								{
									"color" : [ 1.0, 0.360784, 0.682353, 1.0 ],
									"fontname" : "Arial",
									"fontsize" : 9.0,
									"id" : "obj-45",
									"maxclass" : "newobj",
									"numinlets" : 1,
									"numoutlets" : 0,
									"patching_rect" : [ 1039.0, 697.0, 35.0, 19.0 ],
									"style" : "",
									"text" : "s d10"
								}

							}
, 							{
								"box" : 								{
									"color" : [ 1.0, 0.360784, 0.682353, 1.0 ],
									"fontname" : "Arial",
									"fontsize" : 9.0,
									"id" : "obj-46",
									"maxclass" : "newobj",
									"numinlets" : 1,
									"numoutlets" : 0,
									"patching_rect" : [ 974.0, 697.0, 29.0, 19.0 ],
									"style" : "",
									"text" : "s d9"
								}

							}
, 							{
								"box" : 								{
									"color" : [ 1.0, 0.360784, 0.682353, 1.0 ],
									"fontname" : "Arial",
									"fontsize" : 9.0,
									"id" : "obj-47",
									"maxclass" : "newobj",
									"numinlets" : 1,
									"numoutlets" : 0,
									"patching_rect" : [ 909.0, 697.0, 29.0, 19.0 ],
									"style" : "",
									"text" : "s d8"
								}

							}
, 							{
								"box" : 								{
									"color" : [ 1.0, 0.360784, 0.682353, 1.0 ],
									"fontname" : "Arial",
									"fontsize" : 9.0,
									"id" : "obj-48",
									"maxclass" : "newobj",
									"numinlets" : 1,
									"numoutlets" : 0,
									"patching_rect" : [ 779.0, 697.0, 29.0, 19.0 ],
									"style" : "",
									"text" : "s d6"
								}

							}
, 							{
								"box" : 								{
									"color" : [ 1.0, 0.360784, 0.682353, 1.0 ],
									"fontname" : "Arial",
									"fontsize" : 9.0,
									"id" : "obj-49",
									"maxclass" : "newobj",
									"numinlets" : 1,
									"numoutlets" : 0,
									"patching_rect" : [ 844.0, 697.0, 29.0, 19.0 ],
									"style" : "",
									"text" : "s d7"
								}

							}
, 							{
								"box" : 								{
									"color" : [ 1.0, 0.360784, 0.682353, 1.0 ],
									"fontname" : "Arial",
									"fontsize" : 9.0,
									"id" : "obj-50",
									"maxclass" : "newobj",
									"numinlets" : 1,
									"numoutlets" : 0,
									"patching_rect" : [ 714.0, 697.0, 29.0, 19.0 ],
									"style" : "",
									"text" : "s d5"
								}

							}
, 							{
								"box" : 								{
									"color" : [ 1.0, 0.360784, 0.682353, 1.0 ],
									"fontname" : "Arial",
									"fontsize" : 9.0,
									"id" : "obj-51",
									"maxclass" : "newobj",
									"numinlets" : 1,
									"numoutlets" : 0,
									"patching_rect" : [ 649.0, 697.0, 29.0, 19.0 ],
									"style" : "",
									"text" : "s d4"
								}

							}
, 							{
								"box" : 								{
									"color" : [ 1.0, 0.360784, 0.682353, 1.0 ],
									"fontname" : "Arial",
									"fontsize" : 9.0,
									"id" : "obj-52",
									"maxclass" : "newobj",
									"numinlets" : 1,
									"numoutlets" : 0,
									"patching_rect" : [ 584.0, 697.0, 29.0, 19.0 ],
									"style" : "",
									"text" : "s d3"
								}

							}
, 							{
								"box" : 								{
									"color" : [ 1.0, 0.360784, 0.682353, 1.0 ],
									"fontname" : "Arial",
									"fontsize" : 9.0,
									"id" : "obj-53",
									"maxclass" : "newobj",
									"numinlets" : 1,
									"numoutlets" : 0,
									"patching_rect" : [ 519.0, 697.0, 29.0, 19.0 ],
									"style" : "",
									"text" : "s d2"
								}

							}
, 							{
								"box" : 								{
									"color" : [ 1.0, 0.360784, 0.682353, 1.0 ],
									"fontname" : "Arial",
									"fontsize" : 9.0,
									"id" : "obj-54",
									"maxclass" : "newobj",
									"numinlets" : 1,
									"numoutlets" : 0,
									"patching_rect" : [ 389.0, 697.0, 29.0, 19.0 ],
									"style" : "",
									"text" : "s a4"
								}

							}
, 							{
								"box" : 								{
									"color" : [ 1.0, 0.360784, 0.682353, 1.0 ],
									"fontname" : "Arial",
									"fontsize" : 9.0,
									"id" : "obj-55",
									"maxclass" : "newobj",
									"numinlets" : 1,
									"numoutlets" : 0,
									"patching_rect" : [ 454.0, 697.0, 29.0, 19.0 ],
									"style" : "",
									"text" : "s a5"
								}

							}
, 							{
								"box" : 								{
									"color" : [ 1.0, 0.360784, 0.682353, 1.0 ],
									"fontname" : "Arial",
									"fontsize" : 9.0,
									"id" : "obj-56",
									"maxclass" : "newobj",
									"numinlets" : 1,
									"numoutlets" : 0,
									"patching_rect" : [ 324.0, 697.0, 29.0, 19.0 ],
									"style" : "",
									"text" : "s a3"
								}

							}
, 							{
								"box" : 								{
									"color" : [ 1.0, 0.360784, 0.682353, 1.0 ],
									"fontname" : "Arial",
									"fontsize" : 9.0,
									"id" : "obj-57",
									"maxclass" : "newobj",
									"numinlets" : 1,
									"numoutlets" : 0,
									"patching_rect" : [ 259.0, 697.0, 29.0, 19.0 ],
									"style" : "",
									"text" : "s a2"
								}

							}
, 							{
								"box" : 								{
									"color" : [ 1.0, 0.360784, 0.682353, 1.0 ],
									"fontname" : "Arial",
									"fontsize" : 9.0,
									"id" : "obj-58",
									"maxclass" : "newobj",
									"numinlets" : 1,
									"numoutlets" : 0,
									"patching_rect" : [ 194.0, 697.0, 29.0, 19.0 ],
									"style" : "",
									"text" : "s a1"
								}

							}
, 							{
								"box" : 								{
									"color" : [ 1.0, 0.360784, 0.682353, 1.0 ],
									"fontname" : "Arial",
									"fontsize" : 9.0,
									"id" : "obj-59",
									"maxclass" : "newobj",
									"numinlets" : 1,
									"numoutlets" : 0,
									"patching_rect" : [ 129.0, 697.0, 29.0, 19.0 ],
									"style" : "",
									"text" : "s a0"
								}

							}
, 							{
								"box" : 								{
									"fontname" : "Arial",
									"fontsize" : 9.0,
									"id" : "obj-60",
									"maxclass" : "newobj",
									"numinlets" : 1,
									"numoutlets" : 1,
									"outlettype" : [ "" ],
									"patcher" : 									{
										"fileversion" : 1,
										"appversion" : 										{
											"major" : 7,
											"minor" : 2,
											"revision" : 4,
											"architecture" : "x86",
											"modernui" : 1
										}
,
										"rect" : [ 582.0, 197.0, 281.0, 423.0 ],
										"bglocked" : 0,
										"openinpresentation" : 0,
										"default_fontsize" : 12.0,
										"default_fontface" : 0,
										"default_fontname" : "Arial",
										"gridonopen" : 1,
										"gridsize" : [ 15.0, 15.0 ],
										"gridsnaponopen" : 1,
										"objectsnaponopen" : 1,
										"statusbarvisible" : 2,
										"toolbarvisible" : 1,
										"lefttoolbarpinned" : 0,
										"toptoolbarpinned" : 0,
										"righttoolbarpinned" : 0,
										"bottomtoolbarpinned" : 0,
										"toolbars_unpinned_last_save" : 0,
										"tallnewobj" : 0,
										"boxanimatetime" : 200,
										"enablehscroll" : 1,
										"enablevscroll" : 1,
										"devicewidth" : 0.0,
										"description" : "",
										"digest" : "",
										"tags" : "",
										"style" : "",
										"subpatcher_template" : "",
										"boxes" : [ 											{
												"box" : 												{
													"fontname" : "Arial",
													"fontsize" : 9.0,
													"id" : "obj-1",
													"maxclass" : "newobj",
													"numinlets" : 1,
													"numoutlets" : 1,
													"outlettype" : [ "" ],
													"patching_rect" : [ 137.0, 226.0, 64.0, 17.0 ],
													"style" : "",
													"text" : "fromsymbol"
												}

											}
, 											{
												"box" : 												{
													"fontname" : "Arial",
													"fontsize" : 9.0,
													"id" : "obj-2",
													"maxclass" : "newobj",
													"numinlets" : 3,
													"numoutlets" : 1,
													"outlettype" : [ "int" ],
													"patching_rect" : [ 137.0, 182.0, 40.0, 17.0 ],
													"style" : "",
													"text" : "itoa"
												}

											}
, 											{
												"box" : 												{
													"fontname" : "Arial",
													"fontsize" : 9.0,
													"id" : "obj-3",
													"maxclass" : "newobj",
													"numinlets" : 2,
													"numoutlets" : 2,
													"outlettype" : [ "", "" ],
													"patching_rect" : [ 137.0, 148.0, 61.0, 17.0 ],
													"style" : "",
													"text" : "zl group 78"
												}

											}
, 											{
												"box" : 												{
													"fontname" : "Arial",
													"fontsize" : 9.0,
													"id" : "obj-4",
													"maxclass" : "newobj",
													"numinlets" : 3,
													"numoutlets" : 3,
													"outlettype" : [ "bang", "bang", "" ],
													"patching_rect" : [ 137.0, 84.0, 53.0, 17.0 ],
													"style" : "",
													"text" : "sel 10 13"
												}

											}
, 											{
												"box" : 												{
													"comment" : "out",
													"id" : "obj-5",
													"maxclass" : "outlet",
													"numinlets" : 1,
													"numoutlets" : 0,
													"patching_rect" : [ 137.0, 298.0, 26.0, 26.0 ],
													"style" : ""
												}

											}
, 											{
												"box" : 												{
													"comment" : "in",
													"id" : "obj-6",
													"maxclass" : "inlet",
													"numinlets" : 0,
													"numoutlets" : 1,
													"outlettype" : [ "int" ],
													"patching_rect" : [ 137.0, 37.0, 15.0, 15.0 ],
													"style" : ""
												}

											}
 ],
										"lines" : [ 											{
												"patchline" : 												{
													"destination" : [ "obj-5", 0 ],
													"disabled" : 0,
													"hidden" : 0,
													"source" : [ "obj-1", 0 ]
												}

											}
, 											{
												"patchline" : 												{
													"destination" : [ "obj-1", 0 ],
													"disabled" : 0,
													"hidden" : 0,
													"source" : [ "obj-2", 0 ]
												}

											}
, 											{
												"patchline" : 												{
													"destination" : [ "obj-2", 0 ],
													"disabled" : 0,
													"hidden" : 0,
													"source" : [ "obj-3", 0 ]
												}

											}
, 											{
												"patchline" : 												{
													"destination" : [ "obj-3", 0 ],
													"disabled" : 0,
													"hidden" : 0,
													"midpoints" : [ 180.5, 124.0, 146.5, 124.0 ],
													"source" : [ "obj-4", 2 ]
												}

											}
, 											{
												"patchline" : 												{
													"destination" : [ "obj-3", 0 ],
													"disabled" : 0,
													"hidden" : 0,
													"midpoints" : [ 163.5, 124.0, 146.5, 124.0 ],
													"source" : [ "obj-4", 1 ]
												}

											}
, 											{
												"patchline" : 												{
													"destination" : [ "obj-4", 0 ],
													"disabled" : 0,
													"hidden" : 0,
													"source" : [ "obj-6", 0 ]
												}

											}
 ]
									}
,
									"patching_rect" : [ 129.0, 412.0, 73.0, 19.0 ],
									"saved_object_attributes" : 									{
										"description" : "",
										"digest" : "",
										"globalpatchername" : "",
										"style" : "",
										"tags" : ""
									}
,
									"style" : "",
									"text" : "p convertback"
								}

							}
, 							{
								"box" : 								{
									"fontname" : "Arial",
									"fontsize" : 9.0,
									"id" : "obj-61",
									"maxclass" : "newobj",
									"numinlets" : 2,
									"numoutlets" : 2,
									"outlettype" : [ "", "" ],
									"patching_rect" : [ 129.0, 470.0, 52.0, 19.0 ],
									"style" : "",
									"text" : "route list"
								}

							}
, 							{
								"box" : 								{
									"color" : [ 0.156863, 0.8, 0.54902, 1.0 ],
									"fontname" : "Arial",
									"fontsize" : 9.0,
									"id" : "obj-62",
									"maxclass" : "newobj",
									"numinlets" : 1,
									"numoutlets" : 3,
									"outlettype" : [ "", "int", "int" ],
									"patching_rect" : [ 1234.0, 611.0, 49.0, 19.0 ],
									"style" : "",
									"text" : "change 0"
								}

							}
, 							{
								"box" : 								{
									"color" : [ 0.156863, 0.8, 0.54902, 1.0 ],
									"fontname" : "Arial",
									"fontsize" : 9.0,
									"id" : "obj-63",
									"maxclass" : "newobj",
									"numinlets" : 1,
									"numoutlets" : 3,
									"outlettype" : [ "", "int", "int" ],
									"patching_rect" : [ 1169.0, 611.0, 49.0, 19.0 ],
									"style" : "",
									"text" : "change 0"
								}

							}
, 							{
								"box" : 								{
									"color" : [ 0.156863, 0.8, 0.54902, 1.0 ],
									"fontname" : "Arial",
									"fontsize" : 9.0,
									"id" : "obj-64",
									"maxclass" : "newobj",
									"numinlets" : 1,
									"numoutlets" : 3,
									"outlettype" : [ "", "int", "int" ],
									"patching_rect" : [ 1104.0, 611.0, 49.0, 19.0 ],
									"style" : "",
									"text" : "change 0"
								}

							}
, 							{
								"box" : 								{
									"color" : [ 0.156863, 0.8, 0.54902, 1.0 ],
									"fontname" : "Arial",
									"fontsize" : 9.0,
									"id" : "obj-65",
									"maxclass" : "newobj",
									"numinlets" : 1,
									"numoutlets" : 3,
									"outlettype" : [ "", "int", "int" ],
									"patching_rect" : [ 1039.0, 611.0, 49.0, 19.0 ],
									"style" : "",
									"text" : "change 0"
								}

							}
, 							{
								"box" : 								{
									"color" : [ 0.156863, 0.8, 0.54902, 1.0 ],
									"fontname" : "Arial",
									"fontsize" : 9.0,
									"id" : "obj-66",
									"maxclass" : "newobj",
									"numinlets" : 1,
									"numoutlets" : 3,
									"outlettype" : [ "", "int", "int" ],
									"patching_rect" : [ 974.0, 611.0, 49.0, 19.0 ],
									"style" : "",
									"text" : "change 0"
								}

							}
, 							{
								"box" : 								{
									"color" : [ 0.156863, 0.8, 0.54902, 1.0 ],
									"fontname" : "Arial",
									"fontsize" : 9.0,
									"id" : "obj-67",
									"maxclass" : "newobj",
									"numinlets" : 1,
									"numoutlets" : 3,
									"outlettype" : [ "", "int", "int" ],
									"patching_rect" : [ 909.0, 611.0, 49.0, 19.0 ],
									"style" : "",
									"text" : "change 0"
								}

							}
, 							{
								"box" : 								{
									"color" : [ 0.156863, 0.8, 0.54902, 1.0 ],
									"fontname" : "Arial",
									"fontsize" : 9.0,
									"id" : "obj-68",
									"maxclass" : "newobj",
									"numinlets" : 1,
									"numoutlets" : 3,
									"outlettype" : [ "", "int", "int" ],
									"patching_rect" : [ 844.0, 611.0, 49.0, 19.0 ],
									"style" : "",
									"text" : "change 0"
								}

							}
, 							{
								"box" : 								{
									"color" : [ 0.156863, 0.8, 0.54902, 1.0 ],
									"fontname" : "Arial",
									"fontsize" : 9.0,
									"id" : "obj-69",
									"maxclass" : "newobj",
									"numinlets" : 1,
									"numoutlets" : 3,
									"outlettype" : [ "", "int", "int" ],
									"patching_rect" : [ 779.0, 611.0, 49.0, 19.0 ],
									"style" : "",
									"text" : "change 0"
								}

							}
, 							{
								"box" : 								{
									"color" : [ 0.156863, 0.8, 0.54902, 1.0 ],
									"fontname" : "Arial",
									"fontsize" : 9.0,
									"id" : "obj-70",
									"maxclass" : "newobj",
									"numinlets" : 1,
									"numoutlets" : 3,
									"outlettype" : [ "", "int", "int" ],
									"patching_rect" : [ 714.0, 611.0, 49.0, 19.0 ],
									"style" : "",
									"text" : "change 0"
								}

							}
, 							{
								"box" : 								{
									"color" : [ 0.156863, 0.8, 0.54902, 1.0 ],
									"fontname" : "Arial",
									"fontsize" : 9.0,
									"id" : "obj-71",
									"maxclass" : "newobj",
									"numinlets" : 1,
									"numoutlets" : 3,
									"outlettype" : [ "", "int", "int" ],
									"patching_rect" : [ 649.0, 611.0, 49.0, 19.0 ],
									"style" : "",
									"text" : "change 0"
								}

							}
, 							{
								"box" : 								{
									"color" : [ 0.156863, 0.8, 0.54902, 1.0 ],
									"fontname" : "Arial",
									"fontsize" : 9.0,
									"id" : "obj-72",
									"maxclass" : "newobj",
									"numinlets" : 1,
									"numoutlets" : 3,
									"outlettype" : [ "", "int", "int" ],
									"patching_rect" : [ 584.0, 611.0, 49.0, 19.0 ],
									"style" : "",
									"text" : "change 0"
								}

							}
, 							{
								"box" : 								{
									"color" : [ 0.156863, 0.8, 0.54902, 1.0 ],
									"fontname" : "Arial",
									"fontsize" : 9.0,
									"id" : "obj-73",
									"maxclass" : "newobj",
									"numinlets" : 1,
									"numoutlets" : 3,
									"outlettype" : [ "", "int", "int" ],
									"patching_rect" : [ 519.0, 611.0, 49.0, 19.0 ],
									"style" : "",
									"text" : "change 0"
								}

							}
, 							{
								"box" : 								{
									"color" : [ 1.0, 0.360784, 0.682353, 1.0 ],
									"fontname" : "Arial",
									"fontsize" : 9.0,
									"id" : "obj-74",
									"maxclass" : "newobj",
									"numinlets" : 1,
									"numoutlets" : 3,
									"outlettype" : [ "", "int", "int" ],
									"patching_rect" : [ 454.0, 611.0, 49.0, 19.0 ],
									"style" : "",
									"text" : "change 0"
								}

							}
, 							{
								"box" : 								{
									"color" : [ 1.0, 0.360784, 0.682353, 1.0 ],
									"fontname" : "Arial",
									"fontsize" : 9.0,
									"id" : "obj-75",
									"maxclass" : "newobj",
									"numinlets" : 1,
									"numoutlets" : 3,
									"outlettype" : [ "", "int", "int" ],
									"patching_rect" : [ 389.0, 611.0, 49.0, 19.0 ],
									"style" : "",
									"text" : "change 0"
								}

							}
, 							{
								"box" : 								{
									"color" : [ 1.0, 0.360784, 0.682353, 1.0 ],
									"fontname" : "Arial",
									"fontsize" : 9.0,
									"id" : "obj-76",
									"maxclass" : "newobj",
									"numinlets" : 1,
									"numoutlets" : 3,
									"outlettype" : [ "", "int", "int" ],
									"patching_rect" : [ 324.0, 611.0, 49.0, 19.0 ],
									"style" : "",
									"text" : "change 0"
								}

							}
, 							{
								"box" : 								{
									"color" : [ 1.0, 0.360784, 0.682353, 1.0 ],
									"fontname" : "Arial",
									"fontsize" : 9.0,
									"id" : "obj-77",
									"maxclass" : "newobj",
									"numinlets" : 1,
									"numoutlets" : 3,
									"outlettype" : [ "", "int", "int" ],
									"patching_rect" : [ 259.0, 611.0, 49.0, 19.0 ],
									"style" : "",
									"text" : "change 0"
								}

							}
, 							{
								"box" : 								{
									"color" : [ 1.0, 0.360784, 0.682353, 1.0 ],
									"fontname" : "Arial",
									"fontsize" : 9.0,
									"id" : "obj-78",
									"maxclass" : "newobj",
									"numinlets" : 1,
									"numoutlets" : 3,
									"outlettype" : [ "", "int", "int" ],
									"patching_rect" : [ 194.0, 611.0, 49.0, 19.0 ],
									"style" : "",
									"text" : "change 0"
								}

							}
, 							{
								"box" : 								{
									"color" : [ 1.0, 0.360784, 0.682353, 1.0 ],
									"fontname" : "Arial",
									"fontsize" : 9.0,
									"id" : "obj-79",
									"maxclass" : "newobj",
									"numinlets" : 1,
									"numoutlets" : 3,
									"outlettype" : [ "", "int", "int" ],
									"patching_rect" : [ 129.0, 611.0, 49.0, 19.0 ],
									"style" : "",
									"text" : "change 0"
								}

							}
, 							{
								"box" : 								{
									"fontname" : "Arial",
									"fontsize" : 9.0,
									"id" : "obj-80",
									"maxclass" : "newobj",
									"numinlets" : 1,
									"numoutlets" : 18,
									"outlettype" : [ "int", "int", "int", "int", "int", "int", "int", "int", "int", "int", "int", "int", "int", "int", "int", "int", "int", "int" ],
									"patching_rect" : [ 129.0, 528.0, 1131.0, 19.0 ],
									"style" : "",
									"text" : "unpack i i i i i i i i i i i i i i i i i i"
								}

							}
, 							{
								"box" : 								{
									"fontname" : "Arial",
									"fontsize" : 9.0,
									"id" : "obj-81",
									"maxclass" : "message",
									"numinlets" : 2,
									"numoutlets" : 1,
									"outlettype" : [ "" ],
									"patching_rect" : [ 129.0, 240.0, 16.0, 19.0 ],
									"style" : "",
									"text" : "r"
								}

							}
, 							{
								"box" : 								{
									"id" : "obj-82",
									"maxclass" : "toggle",
									"numinlets" : 1,
									"numoutlets" : 1,
									"outlettype" : [ "int" ],
									"parameter_enable" : 0,
									"patching_rect" : [ 129.0, 157.0, 15.0, 15.0 ],
									"style" : ""
								}

							}
, 							{
								"box" : 								{
									"fontname" : "Arial",
									"fontsize" : 9.0,
									"id" : "obj-83",
									"maxclass" : "newobj",
									"numinlets" : 2,
									"numoutlets" : 1,
									"outlettype" : [ "bang" ],
									"patching_rect" : [ 129.0, 204.0, 52.0, 19.0 ],
									"style" : "",
									"text" : "metro 15"
								}

							}
, 							{
								"box" : 								{
									"fontname" : "Arial",
									"fontsize" : 9.0,
									"id" : "obj-84",
									"maxclass" : "newobj",
									"numinlets" : 1,
									"numoutlets" : 2,
									"outlettype" : [ "int", "" ],
									"patching_rect" : [ 129.0, 365.0, 110.0, 19.0 ],
									"style" : "",
									"text" : "serial a 115200 8 1 0"
								}

							}
, 							{
								"box" : 								{
									"fontname" : "Arial",
									"fontsize" : 9.0,
									"id" : "obj-85",
									"maxclass" : "message",
									"numinlets" : 2,
									"numoutlets" : 1,
									"outlettype" : [ "" ],
									"patching_rect" : [ 350.0, 301.0, 32.0, 19.0 ],
									"style" : "",
									"text" : "print"
								}

							}
, 							{
								"box" : 								{
									"angle" : 0.0,
									"bgcolor" : [ 0.619608, 0.87451, 0.996078, 1.0 ],
									"id" : "obj-86",
									"maxclass" : "panel",
									"mode" : 0,
									"numinlets" : 1,
									"numoutlets" : 0,
									"patching_rect" : [ 327.0, 76.0, 398.0, 255.0 ],
									"proportion" : 0.39,
									"rounded" : 0,
									"style" : ""
								}

							}
 ],
						"lines" : [ 							{
								"patchline" : 								{
									"destination" : [ "obj-9", 0 ],
									"disabled" : 0,
									"hidden" : 0,
									"midpoints" : [ 359.5, 167.0, 359.5, 167.0 ],
									"source" : [ "obj-10", 0 ]
								}

							}
, 							{
								"patchline" : 								{
									"destination" : [ "obj-85", 0 ],
									"disabled" : 0,
									"hidden" : 0,
									"midpoints" : [ 284.5, 281.0, 359.5, 281.0 ],
									"source" : [ "obj-11", 0 ]
								}

							}
, 							{
								"patchline" : 								{
									"destination" : [ "obj-40", 0 ],
									"disabled" : 0,
									"hidden" : 0,
									"source" : [ "obj-12", 0 ]
								}

							}
, 							{
								"patchline" : 								{
									"destination" : [ "obj-6", 0 ],
									"disabled" : 0,
									"hidden" : 0,
									"source" : [ "obj-3", 0 ]
								}

							}
, 							{
								"patchline" : 								{
									"destination" : [ "obj-82", 0 ],
									"disabled" : 0,
									"hidden" : 0,
									"midpoints" : [ 70.5, 155.0, 138.0, 155.0 ],
									"source" : [ "obj-35", 0 ]
								}

							}
, 							{
								"patchline" : 								{
									"destination" : [ "obj-2", 0 ],
									"disabled" : 0,
									"hidden" : 0,
									"source" : [ "obj-36", 0 ]
								}

							}
, 							{
								"patchline" : 								{
									"destination" : [ "obj-82", 0 ],
									"disabled" : 0,
									"hidden" : 0,
									"source" : [ "obj-38", 0 ]
								}

							}
, 							{
								"patchline" : 								{
									"destination" : [ "obj-84", 0 ],
									"disabled" : 0,
									"hidden" : 0,
									"midpoints" : [ 217.0, 333.0, 138.5, 333.0 ],
									"source" : [ "obj-40", 0 ]
								}

							}
, 							{
								"patchline" : 								{
									"destination" : [ "obj-84", 0 ],
									"disabled" : 0,
									"hidden" : 0,
									"source" : [ "obj-41", 0 ]
								}

							}
, 							{
								"patchline" : 								{
									"destination" : [ "obj-4", 0 ],
									"disabled" : 0,
									"hidden" : 0,
									"source" : [ "obj-5", 0 ]
								}

							}
, 							{
								"patchline" : 								{
									"destination" : [ "obj-84", 0 ],
									"disabled" : 0,
									"hidden" : 0,
									"source" : [ "obj-6", 0 ]
								}

							}
, 							{
								"patchline" : 								{
									"destination" : [ "obj-61", 0 ],
									"disabled" : 0,
									"hidden" : 0,
									"source" : [ "obj-60", 0 ]
								}

							}
, 							{
								"patchline" : 								{
									"destination" : [ "obj-80", 0 ],
									"disabled" : 0,
									"hidden" : 0,
									"source" : [ "obj-61", 0 ]
								}

							}
, 							{
								"patchline" : 								{
									"destination" : [ "obj-43", 0 ],
									"disabled" : 0,
									"hidden" : 0,
									"midpoints" : [ 1243.5, 680.0, 1243.5, 680.0 ],
									"source" : [ "obj-62", 0 ]
								}

							}
, 							{
								"patchline" : 								{
									"destination" : [ "obj-42", 0 ],
									"disabled" : 0,
									"hidden" : 0,
									"midpoints" : [ 1178.5, 680.0, 1178.5, 680.0 ],
									"source" : [ "obj-63", 0 ]
								}

							}
, 							{
								"patchline" : 								{
									"destination" : [ "obj-44", 0 ],
									"disabled" : 0,
									"hidden" : 0,
									"midpoints" : [ 1113.5, 680.0, 1113.5, 680.0 ],
									"source" : [ "obj-64", 0 ]
								}

							}
, 							{
								"patchline" : 								{
									"destination" : [ "obj-45", 0 ],
									"disabled" : 0,
									"hidden" : 0,
									"midpoints" : [ 1048.5, 680.0, 1048.5, 680.0 ],
									"source" : [ "obj-65", 0 ]
								}

							}
, 							{
								"patchline" : 								{
									"destination" : [ "obj-46", 0 ],
									"disabled" : 0,
									"hidden" : 0,
									"midpoints" : [ 983.5, 680.0, 983.5, 680.0 ],
									"source" : [ "obj-66", 0 ]
								}

							}
, 							{
								"patchline" : 								{
									"destination" : [ "obj-47", 0 ],
									"disabled" : 0,
									"hidden" : 0,
									"midpoints" : [ 918.5, 680.0, 918.5, 680.0 ],
									"source" : [ "obj-67", 0 ]
								}

							}
, 							{
								"patchline" : 								{
									"destination" : [ "obj-49", 0 ],
									"disabled" : 0,
									"hidden" : 0,
									"midpoints" : [ 853.5, 680.0, 853.5, 680.0 ],
									"source" : [ "obj-68", 0 ]
								}

							}
, 							{
								"patchline" : 								{
									"destination" : [ "obj-48", 0 ],
									"disabled" : 0,
									"hidden" : 0,
									"midpoints" : [ 788.5, 680.0, 788.5, 680.0 ],
									"source" : [ "obj-69", 0 ]
								}

							}
, 							{
								"patchline" : 								{
									"destination" : [ "obj-85", 0 ],
									"disabled" : 0,
									"hidden" : 0,
									"source" : [ "obj-7", 0 ]
								}

							}
, 							{
								"patchline" : 								{
									"destination" : [ "obj-50", 0 ],
									"disabled" : 0,
									"hidden" : 0,
									"midpoints" : [ 723.5, 680.0, 723.5, 680.0 ],
									"source" : [ "obj-70", 0 ]
								}

							}
, 							{
								"patchline" : 								{
									"destination" : [ "obj-51", 0 ],
									"disabled" : 0,
									"hidden" : 0,
									"midpoints" : [ 658.5, 680.0, 658.5, 680.0 ],
									"source" : [ "obj-71", 0 ]
								}

							}
, 							{
								"patchline" : 								{
									"destination" : [ "obj-52", 0 ],
									"disabled" : 0,
									"hidden" : 0,
									"midpoints" : [ 593.5, 680.0, 593.5, 680.0 ],
									"source" : [ "obj-72", 0 ]
								}

							}
, 							{
								"patchline" : 								{
									"destination" : [ "obj-53", 0 ],
									"disabled" : 0,
									"hidden" : 0,
									"midpoints" : [ 528.5, 680.0, 528.5, 680.0 ],
									"source" : [ "obj-73", 0 ]
								}

							}
, 							{
								"patchline" : 								{
									"destination" : [ "obj-55", 0 ],
									"disabled" : 0,
									"hidden" : 0,
									"midpoints" : [ 463.5, 680.0, 463.5, 680.0 ],
									"source" : [ "obj-74", 0 ]
								}

							}
, 							{
								"patchline" : 								{
									"destination" : [ "obj-54", 0 ],
									"disabled" : 0,
									"hidden" : 0,
									"midpoints" : [ 398.5, 680.0, 398.5, 680.0 ],
									"source" : [ "obj-75", 0 ]
								}

							}
, 							{
								"patchline" : 								{
									"destination" : [ "obj-56", 0 ],
									"disabled" : 0,
									"hidden" : 0,
									"midpoints" : [ 333.5, 680.0, 333.5, 680.0 ],
									"source" : [ "obj-76", 0 ]
								}

							}
, 							{
								"patchline" : 								{
									"destination" : [ "obj-57", 0 ],
									"disabled" : 0,
									"hidden" : 0,
									"midpoints" : [ 268.5, 680.0, 268.5, 680.0 ],
									"source" : [ "obj-77", 0 ]
								}

							}
, 							{
								"patchline" : 								{
									"destination" : [ "obj-58", 0 ],
									"disabled" : 0,
									"hidden" : 0,
									"midpoints" : [ 203.5, 680.0, 203.5, 680.0 ],
									"source" : [ "obj-78", 0 ]
								}

							}
, 							{
								"patchline" : 								{
									"destination" : [ "obj-59", 0 ],
									"disabled" : 0,
									"hidden" : 0,
									"midpoints" : [ 138.5, 678.0, 138.5, 678.0 ],
									"source" : [ "obj-79", 0 ]
								}

							}
, 							{
								"patchline" : 								{
									"destination" : [ "obj-62", 0 ],
									"disabled" : 0,
									"hidden" : 0,
									"source" : [ "obj-80", 17 ]
								}

							}
, 							{
								"patchline" : 								{
									"destination" : [ "obj-63", 0 ],
									"disabled" : 0,
									"hidden" : 0,
									"source" : [ "obj-80", 16 ]
								}

							}
, 							{
								"patchline" : 								{
									"destination" : [ "obj-64", 0 ],
									"disabled" : 0,
									"hidden" : 0,
									"source" : [ "obj-80", 15 ]
								}

							}
, 							{
								"patchline" : 								{
									"destination" : [ "obj-65", 0 ],
									"disabled" : 0,
									"hidden" : 0,
									"source" : [ "obj-80", 14 ]
								}

							}
, 							{
								"patchline" : 								{
									"destination" : [ "obj-66", 0 ],
									"disabled" : 0,
									"hidden" : 0,
									"source" : [ "obj-80", 13 ]
								}

							}
, 							{
								"patchline" : 								{
									"destination" : [ "obj-67", 0 ],
									"disabled" : 0,
									"hidden" : 0,
									"source" : [ "obj-80", 12 ]
								}

							}
, 							{
								"patchline" : 								{
									"destination" : [ "obj-68", 0 ],
									"disabled" : 0,
									"hidden" : 0,
									"source" : [ "obj-80", 11 ]
								}

							}
, 							{
								"patchline" : 								{
									"destination" : [ "obj-69", 0 ],
									"disabled" : 0,
									"hidden" : 0,
									"source" : [ "obj-80", 10 ]
								}

							}
, 							{
								"patchline" : 								{
									"destination" : [ "obj-70", 0 ],
									"disabled" : 0,
									"hidden" : 0,
									"source" : [ "obj-80", 9 ]
								}

							}
, 							{
								"patchline" : 								{
									"destination" : [ "obj-71", 0 ],
									"disabled" : 0,
									"hidden" : 0,
									"source" : [ "obj-80", 8 ]
								}

							}
, 							{
								"patchline" : 								{
									"destination" : [ "obj-72", 0 ],
									"disabled" : 0,
									"hidden" : 0,
									"source" : [ "obj-80", 7 ]
								}

							}
, 							{
								"patchline" : 								{
									"destination" : [ "obj-73", 0 ],
									"disabled" : 0,
									"hidden" : 0,
									"source" : [ "obj-80", 6 ]
								}

							}
, 							{
								"patchline" : 								{
									"destination" : [ "obj-74", 0 ],
									"disabled" : 0,
									"hidden" : 0,
									"source" : [ "obj-80", 5 ]
								}

							}
, 							{
								"patchline" : 								{
									"destination" : [ "obj-75", 0 ],
									"disabled" : 0,
									"hidden" : 0,
									"source" : [ "obj-80", 4 ]
								}

							}
, 							{
								"patchline" : 								{
									"destination" : [ "obj-76", 0 ],
									"disabled" : 0,
									"hidden" : 0,
									"source" : [ "obj-80", 3 ]
								}

							}
, 							{
								"patchline" : 								{
									"destination" : [ "obj-77", 0 ],
									"disabled" : 0,
									"hidden" : 0,
									"source" : [ "obj-80", 2 ]
								}

							}
, 							{
								"patchline" : 								{
									"destination" : [ "obj-78", 0 ],
									"disabled" : 0,
									"hidden" : 0,
									"source" : [ "obj-80", 1 ]
								}

							}
, 							{
								"patchline" : 								{
									"destination" : [ "obj-79", 0 ],
									"disabled" : 0,
									"hidden" : 0,
									"source" : [ "obj-80", 0 ]
								}

							}
, 							{
								"patchline" : 								{
									"destination" : [ "obj-41", 0 ],
									"disabled" : 0,
									"hidden" : 0,
									"source" : [ "obj-81", 0 ]
								}

							}
, 							{
								"patchline" : 								{
									"destination" : [ "obj-83", 0 ],
									"disabled" : 0,
									"hidden" : 0,
									"source" : [ "obj-82", 0 ]
								}

							}
, 							{
								"patchline" : 								{
									"destination" : [ "obj-12", 0 ],
									"disabled" : 0,
									"hidden" : 0,
									"midpoints" : [ 138.5, 232.0, 217.5, 232.0 ],
									"source" : [ "obj-83", 0 ]
								}

							}
, 							{
								"patchline" : 								{
									"destination" : [ "obj-81", 0 ],
									"disabled" : 0,
									"hidden" : 0,
									"source" : [ "obj-83", 0 ]
								}

							}
, 							{
								"patchline" : 								{
									"destination" : [ "obj-5", 0 ],
									"disabled" : 0,
									"hidden" : 0,
									"source" : [ "obj-84", 1 ]
								}

							}
, 							{
								"patchline" : 								{
									"destination" : [ "obj-60", 0 ],
									"disabled" : 0,
									"hidden" : 0,
									"source" : [ "obj-84", 0 ]
								}

							}
, 							{
								"patchline" : 								{
									"destination" : [ "obj-84", 0 ],
									"disabled" : 0,
									"hidden" : 0,
									"midpoints" : [ 359.5, 341.0, 138.5, 341.0 ],
									"source" : [ "obj-85", 0 ]
								}

							}
, 							{
								"patchline" : 								{
									"destination" : [ "obj-9", 0 ],
									"disabled" : 0,
									"hidden" : 0,
									"source" : [ "obj-87", 0 ]
								}

							}
, 							{
								"patchline" : 								{
									"destination" : [ "obj-83", 1 ],
									"disabled" : 0,
									"hidden" : 0,
									"midpoints" : [ 359.5, 199.0, 171.5, 199.0 ],
									"source" : [ "obj-9", 0 ]
								}

							}
 ]
					}
,
					"patching_rect" : [ 34.0, 136.0, 144.0, 22.0 ],
					"saved_object_attributes" : 					{
						"description" : "",
						"digest" : "",
						"globalpatchername" : "",
						"style" : "",
						"tags" : ""
					}
,
					"style" : "",
					"text" : "p arduinoSerialreader"
				}

			}
 ],
		"lines" : [ 			{
				"patchline" : 				{
					"destination" : [ "obj-12", 0 ],
					"disabled" : 0,
					"hidden" : 0,
					"source" : [ "obj-10", 0 ]
				}

			}
, 			{
				"patchline" : 				{
					"destination" : [ "obj-9", 0 ],
					"disabled" : 0,
					"hidden" : 0,
					"source" : [ "obj-10", 0 ]
				}

			}
, 			{
				"patchline" : 				{
					"destination" : [ "obj-10", 0 ],
					"disabled" : 0,
					"hidden" : 0,
					"source" : [ "obj-18", 0 ]
				}

			}
, 			{
				"patchline" : 				{
					"destination" : [ "obj-2", 0 ],
					"disabled" : 0,
					"hidden" : 0,
					"source" : [ "obj-29", 0 ]
				}

			}
, 			{
				"patchline" : 				{
					"destination" : [ "obj-4", 0 ],
					"disabled" : 0,
					"hidden" : 0,
					"source" : [ "obj-30", 0 ]
				}

			}
, 			{
				"patchline" : 				{
					"destination" : [ "obj-6", 0 ],
					"disabled" : 0,
					"hidden" : 1,
					"source" : [ "obj-5", 0 ]
				}

			}
, 			{
				"patchline" : 				{
					"destination" : [ "obj-53", 0 ],
					"disabled" : 0,
					"hidden" : 0,
					"midpoints" : [ 43.5, 113.0, 43.5, 113.0 ],
					"source" : [ "obj-50", 0 ]
				}

			}
, 			{
				"patchline" : 				{
					"destination" : [ "obj-53", 1 ],
					"disabled" : 0,
					"hidden" : 0,
					"source" : [ "obj-6", 0 ]
				}

			}
, 			{
				"patchline" : 				{
					"destination" : [ "obj-11", 0 ],
					"disabled" : 0,
					"hidden" : 0,
					"source" : [ "obj-8", 0 ]
				}

			}
, 			{
				"patchline" : 				{
					"destination" : [ "obj-8", 0 ],
					"disabled" : 0,
					"hidden" : 0,
					"source" : [ "obj-9", 0 ]
				}

			}
 ],
		"dependency_cache" : [  ],
		"autosave" : 0
	}

}
